<svg width="50" height="50" viewBox="0 0 50 50" fill="none" xmlns="http://www.w3.org/2000/svg">
<rect width="50" height="50" rx="15" fill="#939BD2" fill-opacity="0.03"/>
<path fill-rule="evenodd" clip-rule="evenodd" d="M18.6238 6.12363C19.2098 5.53758 20.0047 5.20833 20.8335 5.20833H29.1668C29.9956 5.20833 30.7906 5.53758 31.3766 6.12363C31.9627 6.70967 32.2918 7.50454 32.2918 8.33333V11.4583H17.7085V8.33333C17.7085 7.50454 18.0377 6.70967 18.6238 6.12363ZM15.6252 11.4583V8.33333C15.6252 6.952 16.1739 5.62723 17.1506 4.65048C18.1274 3.67373 19.4522 3.125 20.8335 3.125H29.1668C30.5481 3.125 31.8729 3.67373 32.8497 4.65048C33.8264 5.62723 34.3752 6.952 34.3752 8.33333V11.4583H39.5835H43.7502C44.3254 11.4583 44.7918 11.9247 44.7918 12.5C44.7918 13.0753 44.3254 13.5417 43.7502 13.5417H40.6252V41.6667C40.6252 43.0479 40.0764 44.3727 39.0997 45.3496C38.1229 46.3262 36.7981 46.875 35.4168 46.875H14.5835C13.2022 46.875 11.8774 46.3262 10.9006 45.3496C9.92389 44.3727 9.37516 43.0479 9.37516 41.6667V13.5417H6.25016C5.67487 13.5417 5.2085 13.0753 5.2085 12.5C5.2085 11.9247 5.67487 11.4583 6.25016 11.4583H10.4168H15.6252ZM11.4585 13.5417H16.6668H33.3335H38.5418V41.6667C38.5418 42.4954 38.2127 43.2904 37.6266 43.8765C37.0406 44.4625 36.2456 44.7917 35.4168 44.7917H14.5835C13.7547 44.7917 12.9598 44.4625 12.3738 43.8765C11.7877 43.2904 11.4585 42.4954 11.4585 41.6667V13.5417ZM20.8335 21.875C21.4087 21.875 21.8752 22.3415 21.8752 22.9167V35.4167C21.8752 35.9919 21.4087 36.4583 20.8335 36.4583C20.2582 36.4583 19.7918 35.9919 19.7918 35.4167V22.9167C19.7918 22.3415 20.2582 21.875 20.8335 21.875ZM30.2085 22.9167C30.2085 22.3415 29.742 21.875 29.1668 21.875C28.5916 21.875 28.1252 22.3415 28.1252 22.9167V35.4167C28.1252 35.9919 28.5916 36.4583 29.1668 36.4583C29.742 36.4583 30.2085 35.9919 30.2085 35.4167V22.9167Z" fill="#FF0F00"/>
</svg>
