<svg width="50" height="50" viewBox="0 0 50 50" fill="none" xmlns="http://www.w3.org/2000/svg">
<rect width="50" height="50" rx="15" fill="#939BD2" fill-opacity="0.03"/>
<path d="M5.78542 41.2145L7.05001 32.5437C7.12709 31.977 7.38542 31.45 7.78959 31.0437L32.2917 6.50829C32.6088 6.18654 33.0037 5.95209 33.438 5.82763C33.8723 5.70318 34.3314 5.69293 34.7708 5.79787C37.0202 6.41966 39.0591 7.63926 40.6708 9.32704C42.354 10.9499 43.5651 12.9991 44.175 15.2562C44.2799 15.6956 44.2697 16.1547 44.1452 16.589C44.0208 17.0234 43.7863 17.4182 43.4646 17.7354L18.9354 42.2395C18.5286 42.6427 18.0011 42.9016 17.4333 42.977L8.76459 44.2416C8.3551 44.3014 7.93729 44.2637 7.54505 44.1318C7.15281 43.9999 6.79719 43.7774 6.50702 43.4824C6.21684 43.1873 6.00029 42.828 5.87492 42.4336C5.74954 42.0393 5.71888 41.6209 5.78542 41.2125M27.6563 11.175L38.8292 22.3479" stroke="black" stroke-width="1.5" stroke-linecap="round" stroke-linejoin="round"/>
</svg>
