<svg width="916" height="140" viewBox="0 0 916 140" fill="none" xmlns="http://www.w3.org/2000/svg">
<path d="M46.7516 33.6V25.2C46.7516 24 46.1516 23.4 44.9516 23.4H25.3516C24.1516 23.4 23.5516 24 23.5516 25.2V114.8C23.5516 116 24.1516 116.6 25.3516 116.6H44.9516C46.1516 116.6 46.7516 116 46.7516 114.8V101C46.7516 99.8 47.4182 99.2 48.7516 99.2H68.3516C69.5516 99.2 70.1516 99.8 70.1516 101V116.6C70.1516 119.8 69.5516 122.867 68.3516 125.8C67.1516 128.6 65.4849 131.067 63.3516 133.2C61.2182 135.333 58.6849 137 55.7516 138.2C52.9516 139.4 49.9516 140 46.7516 140H23.5516C20.3516 140 17.2849 139.4 14.3516 138.2C11.5516 137 9.0849 135.333 6.95156 133.2C4.81823 131.067 3.15156 128.6 1.95156 125.8C0.751563 122.867 0.151563 119.8 0.151563 116.6V23.4C0.151563 20.2 0.751563 17.2 1.95156 14.4C3.15156 11.4667 4.81823 8.93333 6.95156 6.8C9.0849 4.66666 11.5516 2.99999 14.3516 1.79999C17.2849 0.599991 20.3516 -9.53674e-06 23.5516 -9.53674e-06H46.7516C49.9516 -9.53674e-06 52.9516 0.599991 55.7516 1.79999C58.6849 2.99999 61.2182 4.66666 63.3516 6.8C65.4849 8.93333 67.1516 11.4667 68.3516 14.4C69.5516 17.2 70.1516 20.2 70.1516 23.4V39C70.1516 40.2 69.5516 40.8 68.3516 40.8L48.1516 35.4C47.2182 35.1333 46.7516 34.5333 46.7516 33.6ZM135.545 140C135.279 140 135.012 139.933 134.745 139.8C134.212 139.533 133.945 139.067 133.945 138.4V117H112.545L110.945 138.4C110.945 139.2 110.879 139.667 110.745 139.8C110.612 139.933 110.079 140 109.145 140H89.5453C89.1453 140 88.8786 139.933 88.7453 139.8C88.0786 139.533 87.7453 139.067 87.7453 138.4L94.3453 3.39999C94.3453 2.6 94.412 1.86666 94.5453 1.2C94.6786 0.399993 95.1453 -9.53674e-06 95.9453 -9.53674e-06H150.345C151.145 -9.53674e-06 151.612 0.399993 151.745 1.2C151.879 1.86666 151.945 2.6 151.945 3.39999L158.545 138.4C158.545 139.2 158.212 139.667 157.545 139.8C156.879 139.933 156.145 140 155.345 140H135.545ZM128.945 24.8H115.745L112.545 94H132.345L128.945 24.8ZM168.316 1.79999C168.316 0.599991 168.916 -9.53674e-06 170.116 -9.53674e-06H214.916C218.116 -9.53674e-06 221.116 0.599991 223.916 1.79999C226.849 2.99999 229.382 4.66666 231.516 6.8C233.649 8.93333 235.316 11.4667 236.516 14.4C237.716 17.2 238.316 20.2 238.316 23.4V58.4C238.316 63.8667 236.649 68.6667 233.316 72.8C229.982 76.8 225.782 79.5333 220.716 81L237.516 137.6C237.782 138.267 237.716 138.867 237.316 139.4C237.049 139.8 236.582 140 235.916 140H216.316C215.649 140 215.049 139.533 214.516 138.6L197.516 81.6H191.716V138.2C191.716 139.4 191.049 140 189.716 140H170.116C168.916 140 168.316 139.4 168.316 138.2V1.79999ZM191.716 23.4V58.4H213.116C214.316 58.4 214.916 57.7333 214.916 56.4V25.2C214.916 24 214.316 23.4 213.116 23.4H191.716ZM296.556 -9.53674e-06C299.756 -9.53674e-06 302.756 0.599991 305.556 1.79999C308.49 2.99999 311.023 4.66666 313.156 6.8C315.29 8.93333 316.956 11.4667 318.156 14.4C319.356 17.2 319.956 20.2 319.956 23.4V116.6C319.956 118.867 319.623 121.2 318.956 123.6C318.823 124 318.69 124.4 318.556 124.8C318.423 125.067 318.29 125.4 318.156 125.8C317.49 127.267 316.756 128.6 315.956 129.8C315.156 131 314.223 132.133 313.156 133.2C310.623 135.467 308.09 137.2 305.556 138.4C303.023 139.467 300.023 140 296.556 140H251.756C250.556 140 249.956 139.4 249.956 138.2V1.79999C249.956 0.599991 250.556 -9.53674e-06 251.756 -9.53674e-06H272.756H273.356H296.556ZM296.556 25.2C296.556 24 295.956 23.4 294.756 23.4H273.356V116.6H294.756C295.956 116.6 296.556 116 296.556 114.8V25.2ZM419.553 138.6C419.286 139.533 418.686 140 417.753 140H368.553C367.353 140 366.753 139.4 366.753 138.2V1.79999C366.753 0.599991 367.353 -9.53674e-06 368.553 -9.53674e-06H388.153C389.486 -9.53674e-06 390.153 0.599991 390.153 1.79999V116.6H422.753C423.42 116.6 423.886 116.867 424.153 117.4C424.553 117.8 424.686 118.333 424.553 119L419.553 138.6ZM508.633 118.6V138.2C508.633 139.4 507.966 140 506.633 140H440.433C439.233 140 438.633 139.4 438.633 138.2V1.79999C438.633 0.599991 439.233 -9.53674e-06 440.433 -9.53674e-06H506.633C507.966 -9.53674e-06 508.633 0.599991 508.633 1.79999L503.033 22C502.766 22.9333 502.166 23.4 501.233 23.4H461.833V58.4H489.233C490.433 58.4 491.033 59 491.033 60.2V79.8C491.033 81 490.433 81.6 489.233 81.6H461.833V116.6H506.633C507.966 116.6 508.633 117.267 508.633 118.6ZM566.014 140C565.747 140 565.481 139.933 565.214 139.8C564.681 139.533 564.414 139.067 564.414 138.4V117H543.014L541.414 138.4C541.414 139.2 541.347 139.667 541.214 139.8C541.081 139.933 540.547 140 539.614 140H520.014C519.614 140 519.347 139.933 519.214 139.8C518.547 139.533 518.214 139.067 518.214 138.4L524.814 3.39999C524.814 2.6 524.881 1.86666 525.014 1.2C525.147 0.399993 525.614 -9.53674e-06 526.414 -9.53674e-06H580.814C581.614 -9.53674e-06 582.081 0.399993 582.214 1.2C582.347 1.86666 582.414 2.6 582.414 3.39999L589.014 138.4C589.014 139.2 588.681 139.667 588.014 139.8C587.347 139.933 586.614 140 585.814 140H566.014ZM559.414 24.8H546.214L543.014 94H562.814L559.414 24.8ZM598.784 1.79999C598.784 0.599991 599.384 -9.53674e-06 600.584 -9.53674e-06H645.384C648.584 -9.53674e-06 651.584 0.599991 654.384 1.79999C657.318 2.99999 659.851 4.66666 661.984 6.8C664.118 8.93333 665.784 11.4667 666.984 14.4C668.184 17.2 668.784 20.2 668.784 23.4V58.4C668.784 63.8667 667.118 68.6667 663.784 72.8C660.451 76.8 656.251 79.5333 651.184 81L667.984 137.6C668.251 138.267 668.184 138.867 667.784 139.4C667.518 139.8 667.051 140 666.384 140H646.784C646.118 140 645.518 139.533 644.984 138.6L627.984 81.6H622.184V138.2C622.184 139.4 621.518 140 620.184 140H600.584C599.384 140 598.784 139.4 598.784 138.2V1.79999ZM622.184 23.4V58.4H643.584C644.784 58.4 645.384 57.7333 645.384 56.4V25.2C645.384 24 644.784 23.4 643.584 23.4H622.184ZM680.472 1.79999C680.472 0.599991 681.072 -9.53674e-06 682.272 -9.53674e-06H702.472C703.405 -9.53674e-06 704.005 0.466659 704.272 1.4L727.072 81.6V1.79999C727.072 0.599991 727.739 -9.53674e-06 729.072 -9.53674e-06H748.672C749.872 -9.53674e-06 750.472 0.599991 750.472 1.79999V138.2C750.472 139.4 749.872 140 748.672 140H728.472C727.805 140 727.205 139.533 726.672 138.6L703.872 58.4V138.2C703.872 139.4 703.205 140 701.872 140H682.272C681.072 140 680.472 139.4 680.472 138.2V1.79999ZM834.219 118.6V138.2C834.219 139.4 833.552 140 832.219 140H766.019C764.819 140 764.219 139.4 764.219 138.2V1.79999C764.219 0.599991 764.819 -9.53674e-06 766.019 -9.53674e-06H832.219C833.552 -9.53674e-06 834.219 0.599991 834.219 1.79999L828.619 22C828.352 22.9333 827.752 23.4 826.819 23.4H787.419V58.4H814.819C816.019 58.4 816.619 59 816.619 60.2V79.8C816.619 81 816.019 81.6 814.819 81.6H787.419V116.6H832.219C833.552 116.6 834.219 117.267 834.219 118.6ZM845.855 1.79999C845.855 0.599991 846.455 -9.53674e-06 847.655 -9.53674e-06H892.455C895.655 -9.53674e-06 898.655 0.599991 901.455 1.79999C904.388 2.99999 906.921 4.66666 909.055 6.8C911.188 8.93333 912.855 11.4667 914.055 14.4C915.255 17.2 915.855 20.2 915.855 23.4V58.4C915.855 63.8667 914.188 68.6667 910.855 72.8C907.521 76.8 903.321 79.5333 898.255 81L915.055 137.6C915.321 138.267 915.255 138.867 914.855 139.4C914.588 139.8 914.121 140 913.455 140H893.855C893.188 140 892.588 139.533 892.055 138.6L875.055 81.6H869.255V138.2C869.255 139.4 868.588 140 867.255 140H847.655C846.455 140 845.855 139.4 845.855 138.2V1.79999ZM869.255 23.4V58.4H890.655C891.855 58.4 892.455 57.7333 892.455 56.4V25.2C892.455 24 891.855 23.4 890.655 23.4H869.255Z" fill="black"/>
</svg>
